<svg xmlns="http://www.w3.org/2000/svg" width="40" height="40" viewBox="0 0 40 40" fill="none">
                    <path fill-rule="evenodd" clip-rule="evenodd" d="M19.9999 6.25C20.3604 6.25 20.7034 6.40565 20.9408 6.67702L27.8526 14.5787L34.6249 9.03498C35.0193 8.71218 35.5699 8.66108 36.0169 8.90583C36.4639 9.15058 36.7176 9.64218 36.6581 10.1483L34.4178 29.1882C34.1956 31.0767 32.5951 32.5 30.6936 32.5H9.30638C7.40483 32.5 5.80427 31.0767 5.58207 29.1882L3.34185 10.1483C3.2823 9.64218 3.53595 9.15058 3.98293 8.90583C4.42992 8.66108 4.98073 8.71218 5.37507 9.03498L12.1473 14.5787L19.0591 6.67702C19.2964 6.40565 19.6394 6.25 19.9999 6.25ZM19.9999 9.39857L13.2325 17.1352C12.7884 17.6428 12.0217 17.7067 11.4998 17.2795L6.18638 12.9299L7.4363 23.5532H32.5636L33.8136 12.9299L28.5001 17.2795C27.9783 17.7067 27.2114 17.6428 26.7674 17.1352L19.9999 9.39857ZM32.2694 26.0532H7.73045L8.06495 28.896C8.13902 29.5255 8.67253 30 9.30638 30H30.6936C31.3274 30 31.8609 29.5255 31.9349 28.896L32.2694 26.0532Z" fill="white"></path>
                    <path d="M19.9999 9.39857L13.2325 17.1352C12.7884 17.6428 12.0217 17.7067 11.4998 17.2795L6.18638 12.9299L7.4363 23.5532H32.5636L33.8136 12.9299L28.5001 17.2795C27.9783 17.7067 27.2114 17.6428 26.7674 17.1352L19.9999 9.39857Z" fill="white"></path>
                  </svg>
