<svg xmlns="http://www.w3.org/2000/svg" width="40" height="40" viewBox="0 0 40 40" fill="none">
                    <path d="M25.902 5.41671H9.16675C7.09568 5.41671 5.41675 7.09564 5.41675 9.16671V30.8334C5.41675 32.9044 7.09568 34.5834 9.16675 34.5834H30.8334C32.9045 34.5834 34.5834 32.9044 34.5834 30.8334V14.0971L28.9827 19.6978C27.9748 20.7057 26.6527 21.3388 25.2356 21.4922L22.3241 21.8072C21.1953 21.9293 20.0719 21.5335 19.269 20.7306C18.4662 19.9277 18.0703 18.8044 18.1924 17.6755L18.5075 14.764C18.6608 13.3469 19.2939 12.0248 20.3018 11.0169L25.902 5.41671Z" fill="white"></path>
                    <path d="M34.7914 4.18764C33.6524 3.04861 31.8056 3.04862 30.6666 4.18765L29.524 5.33025L34.6694 10.4756L35.812 9.33301C36.951 8.19399 36.951 6.34725 35.812 5.20822L34.7914 4.18764Z" fill="white"></path>
                    <path d="M32.9016 12.2434L27.7562 7.09801L22.0695 12.7847C21.4648 13.3894 21.085 14.1827 20.993 15.0329L20.6779 17.9445C20.6372 18.3208 20.7692 18.6952 21.0368 18.9628C21.3044 19.2305 21.6789 19.3624 22.0551 19.3217L24.9667 19.0067C25.8169 18.9147 26.6102 18.5348 27.2149 17.9301L32.9016 12.2434Z" fill="white"></path>
                  </svg>
