
                  <svg xmlns="http://www.w3.org/2000/svg" width="40" height="40" viewBox="0 0 40 40" fill="none">
                    <path fill-rule="evenodd" clip-rule="evenodd" d="M3.33329 20C3.33329 10.7953 10.7952 3.33337 19.9999 3.33337C29.2048 3.33337 36.6666 10.7953 36.6666 20C36.6666 29.2047 29.2048 36.6667 19.9999 36.6667H4.58329C4.07772 36.6667 3.62192 36.3622 3.42844 35.895C3.23497 35.428 3.3419 34.8904 3.6994 34.5329L7.36397 30.8682C4.85285 27.951 3.33329 24.152 3.33329 20ZM15.8409 13.125C16.9915 13.125 17.9242 14.0577 17.9242 15.2083C17.9242 16.3589 16.9915 17.2918 15.8409 17.2918C14.6903 17.2918 13.7576 16.3589 13.7576 15.2083C13.7576 14.0577 14.6903 13.125 15.8409 13.125ZM26.2426 15.2083C26.2426 14.0577 25.3099 13.125 24.1593 13.125C23.0086 13.125 22.0759 14.0577 22.0759 15.2083C22.0759 16.3589 23.0086 17.2918 24.1593 17.2918C25.3099 17.2918 26.2426 16.3589 26.2426 15.2083ZM16.6823 20.7597C16.2523 20.2197 15.4659 20.1303 14.9258 20.5603C14.3857 20.9903 14.2965 21.7768 14.7265 22.3168C15.9589 23.8648 17.8635 24.8607 20.0002 24.8607C22.1367 24.8607 24.0413 23.8648 25.2737 22.3168C25.7037 21.7768 25.6145 20.9903 25.0743 20.5603C24.5343 20.1303 23.7478 20.2197 23.3178 20.7597C22.5393 21.7375 21.343 22.3607 20.0002 22.3607C18.6573 22.3607 17.4608 21.7375 16.6823 20.7597Z" fill="white"></path>
                  </svg>
