
                  <svg width="40" height="40" viewBox="0 0 40 40" fill="none" xmlns="http://www.w3.org/2000/svg">
                    <path fill-rule="evenodd" clip-rule="evenodd" d="M14.2711 30.0755C14.1949 28.19 12.9483 26.4182 11.2671 24.7764C8.94449 22.508 7.50024 19.3382 7.50024 15.8332C7.50024 8.92972 13.0966 3.33337 20.0001 3.33337C26.9034 3.33337 32.4997 8.92972 32.4997 15.8332C32.4997 19.3379 31.0557 22.5077 28.7334 24.7759C26.9982 26.4707 25.7261 28.3037 25.7261 30.2574V32.9167C25.7261 34.9877 24.0472 36.6667 21.9761 36.6667H18.0211C15.9501 36.6667 14.2711 34.9877 14.2711 32.9167V30.0755ZM10.0002 15.8332C10.0002 10.3104 14.4773 5.83337 20.0001 5.83337C25.5227 5.83337 29.9997 10.3104 29.9997 15.8332C29.9997 18.6374 28.8472 21.1702 26.9866 22.9875C25.7512 24.194 24.4672 25.7095 23.7651 27.5H16.2356C15.5333 25.7097 14.2491 24.1942 13.0139 22.9879C11.153 21.1705 10.0002 18.6375 10.0002 15.8332ZM16.7711 30.3549C16.7736 30.323 16.7747 30.2907 16.7747 30.2582C16.7747 30.1814 16.7736 30.105 16.7711 30.0292V30H23.2261V32.9167C23.2261 33.607 22.6666 34.1667 21.9761 34.1667H18.0211C17.3307 34.1667 16.7711 33.607 16.7711 32.9167V30.3549Z" fill="white"></path>
                    <path d="M10.0002 15.8332C10.0002 10.3104 14.4773 5.83337 20.0001 5.83337C25.5227 5.83337 29.9997 10.3104 29.9997 15.8332C29.9997 18.6374 28.8472 21.1702 26.9866 22.9875C25.7512 24.194 24.4672 25.7095 23.7651 27.5H16.2356C15.5333 25.7097 14.2491 24.1942 13.0139 22.9879C11.153 21.1705 10.0002 18.6375 10.0002 15.8332Z" fill="white"></path>
                    <path d="M2.08325 15.8334C2.08325 15.143 2.6429 14.5834 3.33325 14.5834H4.99992C5.69027 14.5834 6.24992 15.143 6.24992 15.8334C6.24992 16.5237 5.69027 17.0834 4.99992 17.0834H3.33325C2.6429 17.0834 2.08325 16.5237 2.08325 15.8334Z" fill="white"></path>
                    <path d="M6.19137 6.41744C5.5935 6.07225 4.82902 6.2771 4.48383 6.87497C4.13867 7.47283 4.3435 8.23732 4.94137 8.5825L6.38475 9.41583C6.98262 9.76102 7.7471 9.55617 8.09228 8.9583C8.43745 8.36043 8.23262 7.59595 7.63475 7.25077L6.19137 6.41744Z" fill="white"></path>
                    <path d="M4.48383 24.7916C4.13867 24.1938 4.3435 23.4293 4.94137 23.0841L6.38475 22.2508C6.98262 21.9056 7.7471 22.1105 8.09228 22.7083C8.43745 23.3061 8.23262 24.0706 7.63475 24.4158L6.19137 25.2491C5.5935 25.5943 4.82902 25.3895 4.48383 24.7916Z" fill="white"></path>
                    <path d="M35.0002 14.5834C34.3099 14.5834 33.7502 15.143 33.7502 15.8334C33.7502 16.5237 34.3099 17.0834 35.0002 17.0834H36.6669C37.3572 17.0834 37.9169 16.5237 37.9169 15.8334C37.9169 15.143 37.3572 14.5834 36.6669 14.5834H35.0002Z" fill="white"></path>
                    <path d="M31.9091 22.7083C32.2543 22.1105 33.0188 21.9056 33.6166 22.2508L35.06 23.0841C35.658 23.4293 35.8628 24.1938 35.5176 24.7916C35.1725 25.3895 34.408 25.5943 33.81 25.2491L32.3666 24.4158C31.7688 24.0706 31.564 23.3061 31.9091 22.7083Z" fill="white"></path>
                    <path d="M32.3666 7.25077C31.7688 7.59595 31.564 8.36043 31.9091 8.9583C32.2543 9.55617 33.0188 9.76102 33.6166 9.41583L35.06 8.5825C35.658 8.23732 35.8628 7.47283 35.5176 6.87497C35.1725 6.2771 34.408 6.07225 33.81 6.41744L32.3666 7.25077Z" fill="white"></path>
                  </svg>
