<svg xmlns="http://www.w3.org/2000/svg" width="40" height="40" viewBox="0 0 40 40" fill="none">
                    <path fill-rule="evenodd" clip-rule="evenodd" d="M21.2499 4.58337C21.2499 3.89302 20.6903 3.33337 19.9999 3.33337C19.3096 3.33337 18.7499 3.89302 18.7499 4.58337V7.50004H9.58325C7.51219 7.50004 5.83325 9.17897 5.83325 11.25V15.4167H5.41658C4.26599 15.4167 3.33325 16.3494 3.33325 17.5V22.5C3.33325 23.6507 4.26599 24.5834 5.41658 24.5834H5.83325V28.75C5.83325 30.821 7.51219 32.5 9.58325 32.5H30.4166C32.4876 32.5 34.1666 30.821 34.1666 28.75V24.5834H34.5833C35.7339 24.5834 36.6666 23.6507 36.6666 22.5V17.5C36.6666 16.3494 35.7339 15.4167 34.5833 15.4167H34.1666V11.25C34.1666 9.17897 32.4876 7.50004 30.4166 7.50004H21.2499V4.58337ZM15.8409 14.375C16.9915 14.375 17.9242 15.3077 17.9242 16.4583C17.9242 17.609 16.9915 18.5418 15.8409 18.5418C14.6903 18.5418 13.7576 17.609 13.7576 16.4583C13.7576 15.3077 14.6903 14.375 15.8409 14.375ZM26.2426 16.4583C26.2426 15.3077 25.3098 14.375 24.1593 14.375C23.0086 14.375 22.0759 15.3077 22.0759 16.4583C22.0759 17.609 23.0086 18.5418 24.1593 18.5418C25.3098 18.5418 26.2426 17.609 26.2426 16.4583ZM16.6824 22.0097C16.2523 21.4697 15.4659 21.3803 14.9258 21.8103C14.3857 22.2403 14.2965 23.0268 14.7265 23.5668C15.9589 25.1148 17.8635 26.1107 20 26.1107C22.1365 26.1107 24.0414 25.1148 25.2737 23.5668C25.7037 23.0268 25.6145 22.2403 25.0744 21.8103C24.5344 21.3803 23.7479 21.4697 23.3179 22.0097C22.5394 22.9875 21.3429 23.6107 20 23.6107C18.6572 23.6107 17.4607 22.9875 16.6824 22.0097Z" fill="white"></path>
                  </svg>
