<svg xmlns="http://www.w3.org/2000/svg" width="40" height="40" viewBox="0 0 40 40" fill="none">
                    <path fill-rule="evenodd" clip-rule="evenodd" d="M21.7373 3.39262C22.2553 3.55808 22.6069 4.03952 22.6069 4.58333V15.358H32.0248C32.4926 15.358 32.9212 15.6193 33.1357 16.0351C33.3501 16.4508 33.3144 16.9514 33.0433 17.3328L19.6618 36.1412C19.3466 36.5844 18.7809 36.7729 18.2629 36.6074C17.7449 36.4419 17.3933 35.9604 17.3933 35.4167V24.6419H7.97535C7.50754 24.6419 7.07889 24.3807 6.86444 23.9649C6.64997 23.5492 6.68562 23.0486 6.95682 22.6674L20.3383 3.8587C20.6536 3.41558 21.2191 3.22713 21.7373 3.39262ZM10.3987 22.1419H18.6433C18.9748 22.1419 19.2928 22.2738 19.5271 22.5081C19.7616 22.7426 19.8933 23.0604 19.8933 23.3919V31.5034L29.6014 17.8581H21.3569C20.6664 17.8581 20.1069 17.2984 20.1069 16.6081V8.49655L10.3987 22.1419Z" fill="white"></path>
                    <path d="M10.3987 22.1419H18.6433C18.9748 22.1419 19.2928 22.2738 19.5271 22.5081C19.7616 22.7426 19.8933 23.0604 19.8933 23.3919V31.5034L29.6014 17.8581H21.3569C20.6664 17.8581 20.1069 17.2984 20.1069 16.6081V8.49655L10.3987 22.1419Z" fill="white"></path>
                  </svg>
